<svg xmlns="http://www.w3.org/2000/svg" viewBox="0 0 108.46 108.46"><title>AdvancedSearch</title><path d="M448.05,346.25l-22.36-22.36a44.6,44.6,0,0,0,8.08-26,45.1,45.1,0,0,0-3.61-17.83,45,45,0,0,0-24.45-24.44,45.7,45.7,0,0,0-35.65,0,44.92,44.92,0,0,0-24.44,24.44,45.7,45.7,0,0,0,0,35.65,44.89,44.89,0,0,0,24.44,24.45,45.1,45.1,0,0,0,17.83,3.61,44.58,44.58,0,0,0,26-8.08L436.25,358a7.74,7.74,0,0,0,5.86,2.48,8.34,8.34,0,0,0,5.94-14.21Zm-39.53-27.73a29.12,29.12,0,1,1,8.57-20.63,28.15,28.15,0,0,1-8.57,20.63Zm0,0" transform="translate(-342 -252)"/><path d="M413,293.51a1,1,0,0,0-.69-.42l-6.05-.92a20.49,20.49,0,0,0-1.36-3.25c.4-.55,1-1.32,1.78-2.33s1.36-1.73,1.69-2.2a1.24,1.24,0,0,0,.27-.76,1.05,1.05,0,0,0-.24-.73,45.87,45.87,0,0,0-5.45-5.62,1.29,1.29,0,0,0-.83-.33,1,1,0,0,0-.79.3l-4.7,3.54a20.35,20.35,0,0,0-3-1.23l-.92-6.08a1,1,0,0,0-.38-.71,1.23,1.23,0,0,0-.81-.28h-7.35a1.11,1.11,0,0,0-1.18.92,52.82,52.82,0,0,0-1,6.15,19.34,19.34,0,0,0-3,1.26l-4.57-3.54a1.39,1.39,0,0,0-.86-.33q-.72,0-3.12,2.37a32.25,32.25,0,0,0-3.26,3.55,1.4,1.4,0,0,0-.3.76,1.26,1.26,0,0,0,.33.8q2.22,2.67,3.54,4.56a16.49,16.49,0,0,0-1.29,3l-6.15.93a1,1,0,0,0-.63.43,1.25,1.25,0,0,0-.26.76v7.34a1.22,1.22,0,0,0,.26.78,1,1,0,0,0,.7.41l6.05.9a16.11,16.11,0,0,0,1.36,3.27c-.4.55-1,1.33-1.79,2.33s-1.36,1.74-1.69,2.2a1.32,1.32,0,0,0-.26.76,1.24,1.24,0,0,0,.23.76,43.37,43.37,0,0,0,5.46,5.56,1.12,1.12,0,0,0,.82.36,1.19,1.19,0,0,0,.83-.3l4.66-3.53a20.81,20.81,0,0,0,3,1.22l.93,6.08a1,1,0,0,0,.38.72,1.28,1.28,0,0,0,.81.28h7.34a1.11,1.11,0,0,0,1.19-.93,52.44,52.44,0,0,0,1-6.15,18.79,18.79,0,0,0,3-1.26l4.56,3.57a1.62,1.62,0,0,0,.86.3c.49,0,1.52-.78,3.11-2.35a31.75,31.75,0,0,0,3.27-3.57,1.09,1.09,0,0,0,.3-.76,1.29,1.29,0,0,0-.33-.83c-1.59-1.94-2.76-3.46-3.54-4.56a21.68,21.68,0,0,0,1.29-3l6.12-.92a1,1,0,0,0,.66-.43,1.29,1.29,0,0,0,.27-.77v-7.34a1.21,1.21,0,0,0-.27-.77Zm-19.15,10.36a8.46,8.46,0,1,1,2.48-6,8.12,8.12,0,0,1-2.48,6Zm0,0" transform="translate(-342 -252)"/></svg>