<svg xmlns="http://www.w3.org/2000/svg" viewBox="0 0 1220.77 1241.17" fill="none" stroke="#000" stroke-linejoin="round" stroke-width="50"><path d="M745.59,295,851.84,469A101.92,101.92,0,0,0,745.59,295Z"/><rect x="662.72" y="59.49" width="146.75" height="721.54" rx="73.38" transform="matrix(.853369 -.521308 .521308 .853369 -111.15 445.31)"/><path d="M499.22,796.65c-46,15.39-92.33,32.45-135.71,50.93-29.59,12.61-89.53,44.93-136.68,71-.44.25-.9.47-1.35.71l220.29,271a70,70,0,0,0,98.42,10.16h0a70,70,0,0,0,10.17-98.41L417.08,933.17l76.21-61.94a51.64,51.64,0,0,0,7.5-72.64Z"/><path d="M185.8 556.65c-24.72 20.56-80.8 59.14-125.57 89.18a79.62 79.62 0 0 0-23.54 107.61l83.65 137a79.63 79.63 0 0 0 106.49 28.18c47.15-26.07 107.09-58.39 136.68-71 199.59-85 462.09-140 462.09-140L521.36 209.46S352.59 417.9 185.8 556.65z"/><path d="M152.9 581.73l173.55 284.13m681.46-611.31l125.08-76.4m-231.04-24.44L972.07 25m77.18 369.86l146.52-3.62" stroke-linecap="round"/></svg>
