<svg xmlns="http://www.w3.org/2000/svg" viewBox="0 0 377.23 402.5" fill="#231f20"><path d="M113.18 81.51c-53.07 44.54 1.82 86.6-108.5 179.16C-6 269.63 2.22 297 23 321.77s46.3 37.61 57 28.66q6.3-5.28 12.25-9.9c21.43 8.82 32.84 37.45 40.59 54.61a12.48 12.48 0 0 0 14.43 7l45.17-11.42a7.88 7.88 0 0 0 2.39-14.23c-11.46-7.47-18.59-10.55-33.17-25.18a11.58 11.58 0 0 0 .93-15.82l-9.68-11.54a11.61 11.61 0 0 0-15-2.37q-2.4-4-4.47-8.17c69.27-36.54 98.48-2.35 141.8-38.7 23-19.27 5.3-78.14-39.46-131.48s-99.63-80.99-122.6-61.72zm113.87 191.9c-4.21.31-8.71.43-13.7.57-31.59.83-74.71 2-143.73 59-5-1.27-17.5-7.69-31.28-24.12s-18-29.85-18.33-35c68.21-58 76.81-100.32 83.12-131.28l2.93-13.4c6.3 24.86 22.53 55.11 46.59 83.77s51.02 49.94 74.4 60.46zm34.73-45.93c5.7 19 3.51 29.48.63 31.89s-13.57 2.75-31.29-6.17c-11.49-5.78-23.78-14.41-35.83-25l1.85-1.55c1.7-1.43 4-6.51 3.22-14.65-.85-9.4-5.5-19.74-12.73-28.36s-16.62-15-25.73-17.47c-7.88-2.14-13.28-.8-15 .63l-1.85 1.55c-8.34-13.7-14.7-27.3-18.4-39.63-5.7-19-3.51-29.48-.64-31.89s13.58-2.75 31.3 6.17c20.49 10.3 43.51 29.65 63.16 53.07s34.72 49.44 41.31 71.41zm54.75-165.06L260 109.84a10.001 10.001 0 0 0 12.86 15.32l56.51-47.42a10.001 10.001 0 0 0-12.86-15.32zm48.97 92.74l-61.88 10.9a10.002 10.002 0 0 0 3.47 19.7L369 174.85a9.89 9.89 0 0 0 4.68-2.18 10 10 0 0 0-8.15-17.51zM222.12 76.7a9.94 9.94 0 0 0 3-4.24l21.49-59a10.003 10.003 0 0 0-18.8-6.84l-21.52 59.01a10 10 0 0 0 15.83 11.07z"/></svg>
