<svg xmlns="http://www.w3.org/2000/svg" viewBox="0 0 980 663.6" xmlns:v="https://vecta.io/nano"><path d="M980 75.8v511.7l-1.3 5.2c-3.3 10-5.2 20.9-10.4 29.9-16.4 28.1-41.7 41-74.2 41-269.4-.1-538.8 0-808.2 0h-5.4c-37.7-.7-70-27.3-78.1-64.2-.9-4.3-1.6-8.6-2.4-12.9V77.2c.4-1.9.6-3.9 1.2-5.8 3.3-10.1 5.1-21 10.3-29.9C27.7 13.4 52.9 0 85.4 0h809.2 4.8c32.5 1.6 56.8 16.6 71.3 45.6 4.8 9.2 6.3 20.1 9.3 30.2zm-855.7-5.9l4.6 4.3 273.6 242.5c19.6 17.3 39.6 34.1 60.5 49.8 19.9 15.1 34.2 14.7 54.6.3 12-8.5 23.7-17.4 34.7-27.1l299-264.9c1.5-1.4 3.4-2.3 5.1-3.5-.5-.5-1-.9-1.5-1.4H124.3zm7.6 522.4h717L612.3 382.1l-36.6 32.1c-36.3 31.7-78 38.2-123.6 26.5-17.6-4.6-32.8-13.9-46.4-25.9l-37.3-32.6-236.5 210.1zm183.6-256.9L71.7 121.6v433.7l243.8-219.9zm349.6 0l243.4 219.4V121.9L665.1 335.4z"/></svg>