<svg xmlns="http://www.w3.org/2000/svg" viewBox="0 0 116.8 75.09"><title>EyeOpen</title><path d="M452.5,302.05a69.64,69.64,0,0,0-24.54-24,63,63,0,0,0-65.12,0,69.64,69.64,0,0,0-24.54,24,8.42,8.42,0,0,0,0,9,69.73,69.73,0,0,0,24.54,24,63.13,63.13,0,0,0,65.12,0,69.22,69.22,0,0,0,24.54-24,8.42,8.42,0,0,0,0-9Zm-71.08-17.83a19.07,19.07,0,0,1,14-5.83,3,3,0,0,1,2.22.91,3.15,3.15,0,0,1,0,4.43,3,3,0,0,1-2.22.91,13.59,13.59,0,0,0-13.56,13.56,3.13,3.13,0,1,1-6.25,0,19.07,19.07,0,0,1,5.83-14Zm42.3,43.6a54.59,54.59,0,0,1-56.64,0,67.19,67.19,0,0,1-21.74-21.28q9.92-15.37,24.84-23a28.47,28.47,0,0,0-4,14.66,29.2,29.2,0,0,0,58.4,0,28.47,28.47,0,0,0-4-14.66q14.92,7.62,24.84,23a67.3,67.3,0,0,1-21.74,21.28Zm0,0" transform="translate(-337 -269)"/></svg>