<svg xmlns="http://www.w3.org/2000/svg" viewBox="0 0 108.46 91.77"><title>FolderMinus</title><path d="M442.13,281a14,14,0,0,0-10.3-4.3H388V274.6a14.68,14.68,0,0,0-14.6-14.6H352.58A14.68,14.68,0,0,0,338,274.6v62.57a14.68,14.68,0,0,0,14.6,14.6h79.25a14.68,14.68,0,0,0,14.6-14.6V291.28a14,14,0,0,0-4.3-10.29Zm-4,56.18a6.25,6.25,0,0,1-6.26,6.26H352.58a6.23,6.23,0,0,1-6.26-6.26V274.6a6.23,6.23,0,0,1,6.26-6.26h20.85a6.23,6.23,0,0,1,6.26,6.26v4.17A6.23,6.23,0,0,0,386,285h45.88a6.23,6.23,0,0,1,6.26,6.25Zm0,0" transform="translate(-337.98 -260)"/><path d="M413.16,309.75a2.87,2.87,0,0,0-2.11-.87H373.36a3,3,0,0,0-3,3v5.95a2.87,2.87,0,0,0,.87,2.11,2.9,2.9,0,0,0,2.11.86h37.69a2.94,2.94,0,0,0,3-3v-5.95A2.9,2.9,0,0,0,413.16,309.75Z" transform="translate(-337.98 -260)"/></svg>