<svg xmlns="http://www.w3.org/2000/svg" viewBox="0 0 100.11 100.11"><title>InstagramLogo</title><path d="M441.34,259.78a12.4,12.4,0,0,0-9.07-3.78H357.84A12.91,12.91,0,0,0,345,268.84v74.43a12.91,12.91,0,0,0,12.84,12.84h74.43a12.91,12.91,0,0,0,12.84-12.84V268.84a12.39,12.39,0,0,0-3.77-9.06ZM381,292.07a20.55,20.55,0,0,1,28.41,0,19.05,19.05,0,0,1,0,27.57,20.52,20.52,0,0,1-28.41,0,19.05,19.05,0,0,1,0-27.57Zm52.82,48.53a3.82,3.82,0,0,1-1.17,2.84,3.88,3.88,0,0,1-2.8,1.14H360.12a3.84,3.84,0,0,1-2.83-1.14,3.88,3.88,0,0,1-1.15-2.84V298.37h9.2A28,28,0,0,0,364,306.9a28.6,28.6,0,0,0,9.13,21.35,30.42,30.42,0,0,0,22,8.83,31.38,31.38,0,0,0,15.65-4,30.42,30.42,0,0,0,11.34-11,28.9,28.9,0,0,0,4.17-15.16,28.31,28.31,0,0,0-1.3-8.53h8.79Zm0-58.2a4.44,4.44,0,0,1-4.49,4.49H417.93a4.44,4.44,0,0,1-4.49-4.49V271.64a4.36,4.36,0,0,1,1.3-3.16,4.31,4.31,0,0,1,3.19-1.34h11.35a4.29,4.29,0,0,1,3.19,1.34,4.36,4.36,0,0,1,1.3,3.16Zm0,0" transform="translate(-345 -256)"/></svg>