<svg xmlns="http://www.w3.org/2000/svg" viewBox="0 0 100.11 100.11"><title>LinkedInLogo</title><path d="M439.6,261.51A18.08,18.08,0,0,0,426.34,256H363.77A18.81,18.81,0,0,0,345,274.77v62.57a18.81,18.81,0,0,0,18.77,18.77h62.57a18.81,18.81,0,0,0,18.77-18.77V274.77a18,18,0,0,0-5.51-13.26Zm-64.1,78.31H360.44V294.59H375.5Zm-1.36-53.61a8.59,8.59,0,0,1-6.2,2.25h-.06a8.28,8.28,0,0,1-6-2.25,7.43,7.43,0,0,1-2.31-5.57,7.36,7.36,0,0,1,2.37-5.61,8.67,8.67,0,0,1,6.16-2.21,8.31,8.31,0,0,1,6.06,2.21,7.67,7.67,0,0,1,2.35,5.61,7.42,7.42,0,0,1-2.34,5.57Zm55.53,53.61H414.61V315.64q0-10.23-7.56-10.23a7.38,7.38,0,0,0-4.82,1.59,10.05,10.05,0,0,0-2.94,3.88,10.92,10.92,0,0,0-.45,3.65v25.29H383.78q.2-40.93,0-45.23h15.06V301a15.11,15.11,0,0,1,13.49-7.43q7.82,0,12.58,5.15t4.76,15.19Zm0,0" transform="translate(-345 -256)"/></svg>