<svg xmlns="http://www.w3.org/2000/svg" viewBox="0 0 1000 1000"><path d="M867.5 10h-735C64.9 10 10 66.7 10 136.5v727.1C10 933.3 64.9 990 132.5 990h735c67.6 0 122.5-56.7 122.5-126.5v-727C990 66.7 935.1 10 867.5 10zm61.3 853.5c0 34.9-27.5 63.2-61.3 63.2h-735c-33.8 0-61.3-28.4-61.3-63.2v-727c0-34.9 27.5-63.2 61.3-63.2h735c33.8 0 61.3 28.4 61.3 63.2v727zM806.3 231.3H285.6c-16.9 0-30.6 14.2-30.6 31.6s13.7 31.6 30.6 31.6h520.6c16.9 0 30.6-14.1 30.6-31.6.1-17.4-13.6-31.6-30.5-31.6zm0 158.1H285.6c-16.9 0-30.6 14.1-30.6 31.6 0 17.4 13.7 31.6 30.6 31.6h520.6c16.9 0 30.6-14.2 30.6-31.6.1-17.5-13.6-31.6-30.5-31.6zm0 158H285.6c-16.9 0-30.6 14.2-30.6 31.6s13.7 31.6 30.6 31.6h520.6c16.9 0 30.6-14.1 30.6-31.6s-13.6-31.6-30.5-31.6zm0 158.1H285.6c-16.9 0-30.6 14.1-30.6 31.6 0 17.4 13.7 31.6 30.6 31.6h520.6c16.9 0 30.6-14.1 30.6-31.6.1-17.5-13.6-31.6-30.5-31.6zm-643.2-411h61.3v-63.2h-61.3v63.2zm0 158.1h61.3v-63.2h-61.3v63.2zm0 158h61.3v-63.2h-61.3v63.2zm0 158.1h61.3v-63.2h-61.3v63.2z"/></svg>
