<svg xmlns="http://www.w3.org/2000/svg" viewBox="0 0 1000 1000"><path d="M806.3 231.3H285.6c-16.9 0-30.6 14.2-30.6 31.6s13.7 31.6 30.6 31.6h520.6c16.9 0 30.6-14.1 30.6-31.6.1-17.4-13.6-31.6-30.5-31.6h0zm0 158.1H285.6c-16.9 0-30.6 14.1-30.6 31.6 0 17.4 13.7 31.6 30.6 31.6h520.6c16.9 0 30.6-14.2 30.6-31.6.1-17.5-13.6-31.6-30.5-31.6h0zm0 158H285.6c-16.9 0-30.6 14.2-30.6 31.6s13.7 31.6 30.6 31.6h520.6c16.9 0 30.6-14.1 30.6-31.6s-13.6-31.6-30.5-31.6h0zm0 158.1H285.6c-16.9 0-30.6 14.1-30.6 31.6 0 17.4 13.7 31.6 30.6 31.6h520.6c16.9 0 30.6-14.1 30.6-31.6.1-17.5-13.6-31.6-30.5-31.6h0zm-643.2-411h61.3v-63.2h-61.3v63.2zm0 158.1h61.3v-63.2h-61.3v63.2zm0 158h61.3v-63.2h-61.3v63.2zm0 158.1h61.3v-63.2h-61.3v63.2z"/></svg>
