<svg xmlns="http://www.w3.org/2000/svg" viewBox="0 0 108.46 108.46"><title>MagnifyingGlass</title><path d="M447.05,346.25l-22.36-22.36a44.6,44.6,0,0,0,8.08-26,45.1,45.1,0,0,0-3.61-17.83,45,45,0,0,0-24.45-24.44,45.7,45.7,0,0,0-35.65,0,44.92,44.92,0,0,0-24.44,24.44,45.7,45.7,0,0,0,0,35.65,44.89,44.89,0,0,0,24.44,24.45,45.1,45.1,0,0,0,17.83,3.61,44.58,44.58,0,0,0,26-8.08L435.25,358a7.74,7.74,0,0,0,5.86,2.48,8.34,8.34,0,0,0,5.94-14.21Zm-39.53-27.73a29.12,29.12,0,1,1,8.57-20.63,28.15,28.15,0,0,1-8.57,20.63Zm0,0" transform="translate(-341 -252)"/></svg>