<svg xmlns="http://www.w3.org/2000/svg" viewBox="0 0 454.63 123.46"><defs><style>.a{fill:#555;}.b{fill:#111;}</style></defs><title>MetavusPowered</title><path class="a" d="M177.12,332.71H171.4c-.32,0-.44.12-.44.4v9.51c0,.76-.36,1-1.2,1h-6c-.72,0-.92-.28-.92-.92V314.83c0-.56.24-.84.68-.84H176.2c6.52,0,11.84,3.08,11.84,9.44C188,329.31,183.6,332.71,177.12,332.71Zm-1.4-13H171.8c-.64,0-.84.24-.84.8v5.64c0,.56.12.8.6.8H176a3.52,3.52,0,0,0,3.84-3.64C179.8,321,178,319.71,175.72,319.71Z" transform="translate(-162.88 -220.6)"/><path class="a" d="M231.44,328.91c0-9.36,5.56-15.32,14.08-15.32s14,6,14,15.32-5.48,15.15-14,15.15S231.44,338.22,231.44,328.91Zm19.64.12c0-7-1.72-9.88-5.56-9.88s-5.6,2.92-5.6,9.88c0,6.75,1.64,9.43,5.64,9.43S251.08,335.78,251.08,329Z" transform="translate(-162.88 -220.6)"/><path class="a" d="M342.32,315.43l-8.12,27.31a1.25,1.25,0,0,1-1.36.92h-4.92a1.22,1.22,0,0,1-1.36-.92L322,327c-.16-.56-.32-.64-.56.08l-4.6,15.63a1.15,1.15,0,0,1-1.32.92H310.4a1.2,1.2,0,0,1-1.32-.92l-8.16-27.31c-.2-.84.16-1.44,1.08-1.44h5.84c.76,0,1,.28,1.16.76l4.68,16.44c.16.6.36.6.48.16l4.64-16.6c.12-.48.4-.76,1.2-.76h5c.76,0,1,.28,1.16.76L331,331.51c.08.36.32.44.44.07L336,314.75c.08-.48.4-.76,1.16-.76h4.12C342.2,314,342.56,314.59,342.32,315.43Z" transform="translate(-162.88 -220.6)"/><path class="a" d="M387.28,314H408.2c.44,0,.64.28.64.76v4.16a.88.88,0,0,1-1,1H395.52c-.56,0-.84.2-.84.72v4.52c0,.52.28.76.64.76h7.8c.52,0,.76.24.76.72V331c0,.32-.16.59-.64.59h-8a.54.54,0,0,0-.6.57v5.07c0,.4.12.52.44.52h13.32c.52,0,.8.16.8.68v4.4a.75.75,0,0,1-.84.8H387.56c-.72,0-1-.28-1-.92V314.83C386.6,314.27,386.84,314,387.28,314Z" transform="translate(-162.88 -220.6)"/><path class="a" d="M478.08,343.66h-6.84a1,1,0,0,1-1-.76l-4-10.75c-.16-.44-.48-.61-1.2-.61h-2.76a.46.46,0,0,0-.48.45v10.59c0,.8-.36,1.08-1.2,1.08h-6c-.72,0-.92-.28-.92-.92V314.83c0-.56.24-.84.68-.84h13c7.44,0,11.76,3,11.76,8.32a8.23,8.23,0,0,1-5.36,7.92c-.24.12-.24.4-.16.72l5.16,11.51C479,343.1,478.68,343.66,478.08,343.66Zm-7.32-20.83c0-2.32-1.72-3.52-3.92-3.52h-4.2c-.64,0-.84.2-.84.72v5.36c0,.56.12.8.6.8h4.44C469.4,326.19,470.76,325,470.76,322.83Z" transform="translate(-162.88 -220.6)"/><path class="a" d="M524.24,314h20.92c.44,0,.64.28.64.76v4.16a.88.88,0,0,1-1,1H532.48c-.56,0-.84.2-.84.72v4.52c0,.52.28.76.64.76h7.8c.52,0,.76.24.76.72V331c0,.32-.16.59-.64.59h-8a.54.54,0,0,0-.6.57v5.07c0,.4.12.52.44.52H545.4c.52,0,.8.16.8.68v4.4a.75.75,0,0,1-.84.8H524.52c-.72,0-1-.28-1-.92V314.83C523.56,314.27,523.8,314,524.24,314Z" transform="translate(-162.88 -220.6)"/><path class="a" d="M601.44,314c10.76.32,15.76,6.12,15.76,14.72,0,8.87-5.28,14.91-15.84,14.91h-9.64c-.72,0-1-.28-1-1.08V314.91c0-.68.24-.92,1-.92C594,314,599.4,314,601.44,314Zm-2.68,6.16v17.27c0,.44.12.56.52.56h.52c5.72,0,8.92-2.48,8.92-9.31,0-6.24-2.64-9.08-8.44-9.08h-1.12C598.88,319.63,598.76,319.75,598.76,320.19Z" transform="translate(-162.88 -220.6)"/><path class="b" d="M163.4,299.32V223.14c0-1.77.67-2.54,2.32-2.54h30.87c1.87,0,2.53.44,3.08,2l11.47,35c.44,1.22,1.1,1,1.43,0l10.26-33.84c.55-2,1.43-3.2,3-3.2h31.86c1.33,0,2,.88,2,2.32v76.29c0,2.31-1,3.19-3.53,3.19H237.49c-2.21,0-2.87-.88-2.87-2.75v-49.5c0-1.21-.88-1.21-1.32.11l-15.88,50.16a2.81,2.81,0,0,1-2.64,2H203.2a2.59,2.59,0,0,1-2.64-2l-15.88-49.28c-.55-1.76-1.32-1.32-1.32.11V300c0,2-.44,2.42-2.43,2.42H166.27A2.78,2.78,0,0,1,163.4,299.32Z" transform="translate(-162.88 -220.6)"/><path class="b" d="M298.35,289c3.74,0,7.16-1.43,12-6.17.55-.55.88-.66,2.32-.11l10,4.08c1.1.44,1.43,1.43.44,2.65-7.94,11.13-15.43,14.11-27.78,14.11-17.64,0-31.09-12-31.09-29.33,0-18.74,14.33-31.31,30.65-31.31,17.31,0,30,11.58,30,31.53,0,1.88-.11,2.65-2,2.76H288.64c-1.1,0-1.65.55-1.65,1.87C287,285.76,292,289,298.35,289Zm3.3-23.15c1.44,0,1.88-.22,1.88-1.54,0-2.87-2.1-8.49-7.61-8.49-4.52,0-8.71,3.09-8.6,9.92Z" transform="translate(-162.88 -220.6)"/><path class="b" d="M359,258.86a1.33,1.33,0,0,0-1.43,1.43v21.17c0,3.86,2.31,5.84,7.72,5.84H370a2,2,0,0,1,2,2.21l-.11,8.81c0,1.77-1.1,2.87-3.2,3.31a111.44,111.44,0,0,1-14.88.77c-10.58,0-18.3-5.18-18.3-14.66v-26.9c0-1.32-.33-2-1.65-2h-5.3c-1.87,0-2.64-1-2.64-2.43V246.07c0-1.43.88-2.1,2.42-2.1h6.51q1.16,0,1.32-1.32l1.77-16.32c.11-1.43.66-2.2,2-2.2h16.21c1.21,0,2.09.88,2.09,2.43v16.09a1.1,1.1,0,0,0,1.21,1.21h10.15c1.43,0,2.42.67,2.42,2.1v10.47c0,1.43-.88,2.43-2.75,2.43Z" transform="translate(-162.88 -220.6)"/><path class="b" d="M392.28,303.51c-11,0-17.64-6.95-17.64-16.1,0-12.9,13-21.61,33.84-21.61h.78a1.5,1.5,0,0,0,1.65-1.54v-1.88c0-4.07-2.1-6.39-6.51-6.39-3.08,0-6.72,1.1-8.6,5.18-.55,1.21-1,1.55-3,1.21l-14.44-2.86c-1.11-.22-1.77-.77-.78-3.53,3.31-9.37,13.34-13.12,27.79-13.12,20.39,0,26.45,7.39,26.45,18.19v38.37c0,2.2-.44,3-2.53,3h-15.1c-2,0-2.54-1.76-2.87-3.85l-.11-.78c-.22-1.43-1.1-1.54-3,0A24.2,24.2,0,0,1,392.28,303.51Zm17-27.79h-.45c-3.52,0-12.78,2.54-12.78,8.71,0,3.09,2.31,5.19,6.28,5.19a9.36,9.36,0,0,0,6.06-2.1c1.33-1.1,2.54-2.31,2.54-4v-5.84C410.91,276.39,410.58,275.72,409.26,275.72Z" transform="translate(-162.88 -220.6)"/><path class="a" d="M494.59,247.17l-21.5,52.48A3.87,3.87,0,0,1,469,302.4H458.65a3.87,3.87,0,0,1-4.08-2.75l-21.39-52.48a2.27,2.27,0,0,1,2.09-3.2h18.64a3.19,3.19,0,0,1,2.86,2.21l9.7,25.47c.45,1.32,1,1.43,1.66-.11l9.37-25.36a3.31,3.31,0,0,1,2.86-2.21h12.35C494.48,244,495.14,245.63,494.59,247.17Z" transform="translate(-162.88 -220.6)"/><path class="a" d="M534.72,283.55V247.17c0-2.2,1.1-3.2,3.63-3.2h15.77c2.09,0,2.87.89,2.87,2.87L556.55,300c0,1.54-.78,2.42-2.1,2.42H537c-1.21,0-2-.77-2-2.2v-4.85c0-.88-.55-1.21-1.33-.44-5.07,5.95-10.91,8.6-18.3,8.6-9.48,0-16.42-6.62-16.42-18.41V247.28c0-2.2,1-3.31,3.42-3.31h16.09c1.88,0,2.54.78,2.54,2.87v35.83a5,5,0,0,0,5.4,5.4C529.76,288.07,532.73,286.09,534.72,283.55Z" transform="translate(-162.88 -220.6)"/><path class="a" d="M590,255.66c-3.86,0-7.06,1.43-7.06,3.86,0,1,.45,2.09,4.41,2.86L599,264.81c13.67,2.87,18.52,10.36,18.52,18.85,0,12.68-11.35,19.85-27.89,19.85-14.11,0-23.81-5.41-27.45-12-.77-1.32-.88-2.65.22-3.2l9.59-4.85c1.87-.88,2.65-.66,3.42.22,2.53,2.87,5.51,6.51,14.33,6.29,4.63-.11,8.27-1.22,8.27-4,0-1.44-.88-2.65-5.07-3.42l-11.25-2c-11.13-2-17.86-7.5-18-17.53-.11-11.47,9.37-20.18,26.46-20.18,12,0,21,5.18,24.14,10.59.67,1.1,1.55,2.53,0,3.3l-10.14,4.85c-1.32.66-2.31.11-3.2-.88A14,14,0,0,0,590,255.66Z" transform="translate(-162.88 -220.6)"/></svg>