<svg xmlns="http://www.w3.org/2000/svg" viewBox="0 0 122.47 91.77"><title>OpenFolder</title><path d="M367.05,304.81a30.67,30.67,0,0,1,12.84-3.09h54.22V291.29a14.68,14.68,0,0,0-14.6-14.6H384.06V274.6a14.7,14.7,0,0,0-14.6-14.6H348.6A14.68,14.68,0,0,0,334,274.6v62.57c0,.17,0,.45,0,.82s0,.64,0,.81l.32-.39,22-25.81a30.44,30.44,0,0,1,10.69-7.79Zm0,0" transform="translate(-334 -260)"/><path d="M454.74,310.91a8.75,8.75,0,0,0-3.94-.85H379.89a22.69,22.69,0,0,0-9.36,2.31,22,22,0,0,0-7.85,5.64l-21.9,25.81a6.7,6.7,0,0,0-2,4.3,2.92,2.92,0,0,0,1.72,2.81,9,9,0,0,0,3.95.84h70.91a22.61,22.61,0,0,0,9.35-2.31,22,22,0,0,0,7.86-5.64L454.45,318a6.7,6.7,0,0,0,2-4.3,2.89,2.89,0,0,0-1.73-2.8Zm0,0" transform="translate(-334 -260)"/></svg>