<svg xmlns="http://www.w3.org/2000/svg" viewBox="0 0 98.75 98.75"><title>Pencil</title><path d="M346,328.63v27.12h27.11l54.23-54.23L400.23,274.4Zm23.66,18.77h-7v-8.34h-8.35v-7l5.93-5.93,15.32,15.31Zm32.66-61.92a1.27,1.27,0,0,1,1.43,1.44,1.51,1.51,0,0,1-.46,1.11L368,323.35a1.47,1.47,0,0,1-1.1.46,1.27,1.27,0,0,1-1.44-1.43,1.48,1.48,0,0,1,.46-1.11l35.33-35.33a1.52,1.52,0,0,1,1.11-.46Zm0,0" transform="translate(-346 -257)"/><path d="M442.33,274.73,427,259.48a8.1,8.1,0,0,0-5.93-2.48,7.75,7.75,0,0,0-5.87,2.48L404.4,270.23l27.12,27.11,10.82-10.81a8,8,0,0,0,2.41-5.87,8.33,8.33,0,0,0-2.42-5.93Zm0,0" transform="translate(-346 -257)"/></svg>