<?xml version="1.0" encoding="UTF-8"?>
<!DOCTYPE svg  PUBLIC '-//W3C//DTD SVG 1.1//EN'  'http://www.w3.org/Graphics/SVG/1.1/DTD/svg11.dtd'>
<svg width="438.54px" height="438.54px" enable-background="new 0 0 438.542 438.542" version="1.1" viewBox="0 0 438.542 438.542" xml:space="preserve" xmlns="http://www.w3.org/2000/svg">
	<path d="m427.41 19.697c-7.803-3.23-14.463-1.902-19.986 3.999l-37.116 36.834c-20.366-19.225-43.634-34.118-69.806-44.682-26.172-10.563-53.249-15.845-81.229-15.845-29.692 0-58.052 5.808-85.08 17.417-27.03 11.61-50.347 27.215-69.951 46.82-19.605 19.607-35.214 42.921-46.824 69.949-11.609 27.03-17.416 55.386-17.416 85.082 0 29.687 5.807 58.05 17.417 85.079 11.613 27.031 27.218 50.347 46.824 69.952 19.604 19.599 42.921 35.207 69.951 46.818 27.028 11.611 55.388 17.419 85.08 17.419 32.736 0 63.865-6.899 93.363-20.7 29.5-13.795 54.625-33.26 75.377-58.386 1.52-1.903 2.234-4.045 2.136-6.424-0.089-2.378-0.999-4.329-2.711-5.852l-39.108-39.399c-2.101-1.711-4.473-2.566-7.139-2.566-3.045 0.38-5.232 1.526-6.566 3.429-13.895 18.086-30.93 32.072-51.107 41.977-20.173 9.894-41.586 14.839-64.237 14.839-19.792 0-38.684-3.854-56.671-11.564-17.989-7.706-33.551-18.127-46.682-31.261-13.13-13.135-23.551-28.691-31.261-46.682-7.708-17.987-11.563-36.874-11.563-56.671 0-19.795 3.858-38.691 11.563-56.674 7.707-17.985 18.127-33.547 31.261-46.678 13.135-13.134 28.693-23.555 46.682-31.265 17.983-7.707 36.879-11.563 56.671-11.563 38.259 0 71.475 13.039 99.646 39.116l-39.409 39.394c-5.903 5.711-7.231 12.279-4.001 19.701 3.241 7.614 8.856 11.42 16.854 11.42h127.91c4.949 0 9.23-1.807 12.848-5.424 3.613-3.616 5.42-7.898 5.42-12.847v-127.91c-2e-3 -7.992-3.704-13.607-11.136-16.853z"/>
</svg>
