<svg xmlns="http://www.w3.org/2000/svg" viewBox="0 0 108.46 108.46"><title>SearchResults</title><path d="M448.05,346.25l-22.36-22.36a44.6,44.6,0,0,0,8.08-26,45.1,45.1,0,0,0-3.61-17.83,45,45,0,0,0-24.45-24.44,45.7,45.7,0,0,0-35.65,0,44.92,44.92,0,0,0-24.44,24.44,45.7,45.7,0,0,0,0,35.65,44.89,44.89,0,0,0,24.44,24.45,45.1,45.1,0,0,0,17.83,3.61,44.58,44.58,0,0,0,26-8.08L436.25,358a7.74,7.74,0,0,0,5.86,2.48,8.34,8.34,0,0,0,5.94-14.21Zm-39.53-27.73a29.12,29.12,0,1,1,8.57-20.63,28.15,28.15,0,0,1-8.57,20.63Zm0,0" transform="translate(-342 -252)"/><path d="M370.13,293.19a4.66,4.66,0,1,0,3.31,1.36,4.5,4.5,0,0,0-3.31-1.36Zm0,0" transform="translate(-342 -252)"/><path d="M370.13,280.69a4.68,4.68,0,1,0,3.31,1.37,4.51,4.51,0,0,0-3.31-1.37Zm0,0" transform="translate(-342 -252)"/><path d="M370.13,305.68a4.68,4.68,0,1,0,3.31,1.37,4.51,4.51,0,0,0-3.31-1.37Zm0,0" transform="translate(-342 -252)"/><path d="M408.94,282.48a.78.78,0,0,0-.55-.23H378.71a.74.74,0,0,0-.54.23.75.75,0,0,0-.24.55v4.69a.75.75,0,0,0,.24.55.74.74,0,0,0,.54.23h29.68a.79.79,0,0,0,.78-.78V283a.78.78,0,0,0-.23-.55Zm0,0" transform="translate(-342 -252)"/><path d="M408.39,294.75H378.71a.7.7,0,0,0-.54.23.74.74,0,0,0-.24.55v4.68a.74.74,0,0,0,.24.55.7.7,0,0,0,.54.23h29.68a.74.74,0,0,0,.55-.23.76.76,0,0,0,.23-.55v-4.68a.76.76,0,0,0-.23-.55.74.74,0,0,0-.55-.23Zm0,0" transform="translate(-342 -252)"/><path d="M408.39,307.24H378.71a.74.74,0,0,0-.54.23.75.75,0,0,0-.24.55v4.69a.75.75,0,0,0,.24.55.74.74,0,0,0,.54.23h29.68a.79.79,0,0,0,.78-.78V308a.79.79,0,0,0-.78-.78Zm0,0" transform="translate(-342 -252)"/></svg>