<svg xmlns="http://www.w3.org/2000/svg" viewBox="0 0 100.11 100.11"><title>TwitterLogo</title><path d="M439.6,261.51A18.08,18.08,0,0,0,426.34,256H363.77A18.81,18.81,0,0,0,345,274.77v62.57a18.81,18.81,0,0,0,18.77,18.77h62.57a18.81,18.81,0,0,0,18.77-18.77V274.77a18,18,0,0,0-5.51-13.26Zm-18,33c0,.39.06,1,.06,1.76a39.47,39.47,0,0,1-6.49,21.54,40.84,40.84,0,0,1-7.85,8.93,35.07,35.07,0,0,1-10.95,6.19,39.66,39.66,0,0,1-13.68,2.32,38.42,38.42,0,0,1-21-6.13,26.26,26.26,0,0,0,3.25.2,27.06,27.06,0,0,0,17-5.87,13,13,0,0,1-7.92-2.74,13.94,13.94,0,0,1-4.86-6.77,18.59,18.59,0,0,0,2.55.25,12.61,12.61,0,0,0,3.32-.52,13.68,13.68,0,0,1-8-4.72,13,13,0,0,1-3.26-8.7v-.14a16,16,0,0,0,6.52,1.7,12.92,12.92,0,0,1-5.93-11.41,13.59,13.59,0,0,1,1.89-6.91,39.09,39.09,0,0,0,28.29,14.34,12.34,12.34,0,0,1-.33-3.13A13.69,13.69,0,0,1,407.9,281a13,13,0,0,1,10,4.3A27,27,0,0,0,426.6,282a13.27,13.27,0,0,1-6.06,7.62,28.77,28.77,0,0,0,7.89-2.22,26.59,26.59,0,0,1-6.84,7.11Zm0,0" transform="translate(-345 -256)"/></svg>