<svg xmlns="http://www.w3.org/2000/svg" viewBox="0 0 100.11 100.11"><title>YouTubeLogo</title><path d="M439.6,261.51A18.08,18.08,0,0,0,426.34,256H363.77A18.81,18.81,0,0,0,345,274.77v62.57a18.81,18.81,0,0,0,18.77,18.77h62.57a18.81,18.81,0,0,0,18.77-18.77V274.77a18,18,0,0,0-5.51-13.26Zm-35.48,9h4.36V288.2a8.82,8.82,0,0,0,.07,1.69c0,.7.39,1,1,1,.87,0,1.78-.67,2.74-2V270.47h4.36v24.12h-4.36V292c-1.78,1.95-3.46,2.93-5,2.93a2.75,2.75,0,0,1-2.8-1.76,12.18,12.18,0,0,1-.39-3.58Zm-16.49,7.82a9.6,9.6,0,0,1,1.37-5.67,5.84,5.84,0,0,1,5.08-2.48,6.06,6.06,0,0,1,5.08,2.48,9.67,9.67,0,0,1,1.37,5.67v8.48q0,3.9-1.37,5.66a6,6,0,0,1-5.08,2.48,5.82,5.82,0,0,1-5.08-2.48c-.92-1.25-1.37-3.14-1.37-5.66Zm-11.74-16.1,3.46,12.71,3.32-12.71h4.89l-5.86,19.29v13.11h-4.83V281.48a91.34,91.34,0,0,0-3-10.29l-1.5-4.5-1.57-4.5Zm53.71,78.67a9.06,9.06,0,0,1-2.77,4.76,8.51,8.51,0,0,1-4.92,2.28q-8.93,1-26.85,1t-26.86-1a8.48,8.48,0,0,1-4.91-2.28,9.06,9.06,0,0,1-2.77-4.76q-1.32-5.48-1.31-16.95,0-11.27,1.31-16.94a9,9,0,0,1,2.77-4.8,8.61,8.61,0,0,1,5-2.24,267.62,267.62,0,0,1,26.79-1,268.45,268.45,0,0,1,26.85,1,8.73,8.73,0,0,1,4.95,2.24,9,9,0,0,1,2.81,4.8q1.23,5.4,1.24,16.94t-1.31,16.95Zm0,0" transform="translate(-345 -256)"/><path d="M364.55,311.86h5.09v27.57h4.82V311.86h5.22V307.3H364.55Zm0,0" transform="translate(-345 -256)"/><path d="M388.41,333.76c-1,1.35-1.87,2-2.74,2-.61,0-.93-.33-1-1a8.89,8.89,0,0,1-.07-1.7V315.51h-4.3v18.9a11.16,11.16,0,0,0,.39,3.52,2.56,2.56,0,0,0,2.74,1.82q2.4,0,5-2.93v2.61h4.36V315.51h-4.36Zm0,0" transform="translate(-345 -256)"/><path d="M405.29,315.18q-2.34,0-4.43,2.61V307.3h-4.37v32.13h4.37v-2.35q2.14,2.67,4.43,2.67a3.33,3.33,0,0,0,3.45-2.74,16.66,16.66,0,0,0,.46-4.75v-9.52a17,17,0,0,0-.46-4.82,3.33,3.33,0,0,0-3.45-2.74Zm-.39,17.41c0,2.12-.63,3.19-1.89,3.19a3,3,0,0,1-2.15-1v-14.6a3.06,3.06,0,0,1,2.15-1c1.26,0,1.89,1.08,1.89,3.26Zm0,0" transform="translate(-345 -256)"/><path d="M421.13,332.55a10.22,10.22,0,0,1,0,1.08q0,.39,0,.45a1.89,1.89,0,0,1-2,1.7c-1.47,0-2.21-1.11-2.21-3.33v-4.23h8.67v-5c0-2.52-.46-4.38-1.37-5.6a5.86,5.86,0,0,0-5.09-2.48,6.2,6.2,0,0,0-5.21,2.48q-1.31,1.75-1.3,5.6v8.41q0,3.84,1.37,5.61a6.26,6.26,0,0,0,5.28,2.47,5.86,5.86,0,0,0,5.21-2.6,6.18,6.18,0,0,0,1-2.61,21.19,21.19,0,0,0,.13-2.8v-.59h-4.43Zm-4.24-10.14c0-2.21.72-3.32,2.15-3.32s2.15,1.11,2.15,3.32v2.22h-4.3Zm0,0" transform="translate(-345 -256)"/><path d="M394.08,290.93c1.39,0,2.08-1.1,2.08-3.32V277.44c0-2.26-.69-3.39-2.08-3.39s-2.09,1.13-2.09,3.39v10.17c0,2.22.7,3.32,2.09,3.32Zm0,0" transform="translate(-345 -256)"/></svg>